<!DOCTYPE svg PUBLIC "-//W3C//DTD SVG 20010904//EN" "http://www.w3.org/TR/2001/REC-SVG-20010904/DTD/svg10.dtd">
<svg version="1.0" xmlns="http://www.w3.org/2000/svg" width="973px" height="849px" viewBox="0 0 9730 8490" preserveAspectRatio="xMidYMid meet">
<g  fill="white" stroke="none">
 <path d="M1012 7670 c-12 -5 -25 -16 -28 -24 -8 -22 24 -127 47 -151 18 -21 41 -136 54 -285 3 -36 17 -130 31 -210 28 -165 51 -326 64 -450 5 -47 16 -134 25 -195 8 -60 24 -180 35 -265 21 -157 43 -303 60 -395 18 -98 30 -183 30 -208 0 -32 -19 -39 -45 -17 -27 23 -80 40 -125 40 -46 0 -53 -7 -34 -35 17 -26 108 -51 148 -41 38 10 74 -18 81 -62 4 -21 13 -68 20 -107 8 -38 21 -108 30 -155 25 -129 51 -262 79 -395 14 -65 23 -122 20 -124 -8 -8 -257 244 -519 524 -133 143 -290 307 -349 364 -58 57 -106 106 -106 108 0 3 6 3 14 0 22 -9 251 -55 352 -71 89 -14 134 -13 134 5 0 16 -29 24 -190 54 -79 14 -89 16 -185 39 -33 8 -89 21 -125 30 -36 8 -91 22 -123 31 -69 19 -97 13 -97 -21 0 -18 12 -31 52 -54 65 -36 279 -246 574 -560 122 -129 309 -322 417 -429 165 -163 196 -199 202 -230 3 -20 14 -72 25 -116 10 -44 31 -134 46 -200 14 -66 41 -178 60 -250 18 -71 35 -141 38 -155 2 -14 15 -63 27 -110 12 -47 25 -101 30 -120 4 -19 15 -62 23 -95 8 -33 24 -96 35 -140 22 -86 23 -92 88 -330 68 -250 131 -466 206 -712 19 -62 33 -113 31 -113 -2 0 -17 26 -33 58 -64 131 -214 416 -235 451 -13 20 -38 64 -55 96 -18 33 -45 83 -60 110 -16 28 -40 73 -54 100 -14 28 -43 78 -64 113 -21 34 -74 122 -117 195 -44 72 -107 175 -141 227 -34 52 -92 145 -130 205 -116 186 -196 277 -270 305 -47 19 -125 13 -158 -10 -35 -27 -54 -20 -94 33 -86 113 -117 128 -167 82 -31 -28 -33 -51 -7 -83 16 -19 23 -21 46 -12 24 9 25 11 11 26 -17 16 -21 34 -8 34 4 0 30 -32 57 -72 51 -72 94 -108 130 -108 11 0 38 7 60 15 67 24 115 19 158 -16 40 -33 172 -207 229 -302 4 -7 33 -55 64 -107 59 -97 67 -111 122 -192 18 -25 32 -50 32 -54 0 -4 11 -22 25 -40 14 -18 25 -35 25 -38 0 -3 25 -47 56 -98 73 -121 93 -156 116 -198 21 -41 36 -65 60 -102 10 -15 36 -64 59 -110 23 -46 63 -121 90 -168 53 -93 148 -276 229 -440 129 -261 150 -306 150 -314 0 -5 6 -17 13 -25 8 -9 24 -41 37 -71 12 -30 33 -77 45 -105 13 -27 40 -90 60 -140 21 -49 41 -94 45 -100 4 -5 10 -21 13 -35 5 -24 20 -70 38 -115 4 -11 10 -36 12 -55 6 -46 37 -152 47 -165 5 -6 20 -40 33 -75 61 -161 121 -307 137 -330 10 -14 25 -42 33 -62 20 -48 52 -66 78 -43 14 14 16 22 8 37 -6 11 -9 28 -6 39 3 10 -2 24 -10 31 -17 14 -58 93 -98 188 -31 74 -105 277 -109 300 -3 17 -15 46 -50 123 -13 29 -26 63 -30 77 -9 29 -32 87 -46 112 -6 10 -10 25 -10 33 0 8 -4 23 -10 33 -5 9 -21 49 -35 87 -15 39 -30 79 -35 90 -4 11 -20 54 -35 95 -14 41 -40 92 -57 114 -24 30 -28 40 -17 47 11 6 2 43 -45 186 -163 498 -349 1162 -502 1798 -13 55 -29 116 -34 135 -14 50 -55 223 -89 373 l-29 129 42 -39 c22 -22 127 -122 231 -223 183 -176 402 -374 584 -528 73 -62 227 -194 265 -227 6 -5 43 -36 82 -67 70 -56 71 -57 88 -130 10 -40 28 -104 41 -143 12 -38 37 -124 54 -190 18 -66 52 -183 76 -260 24 -77 60 -194 80 -260 20 -66 44 -142 52 -170 28 -89 115 -348 145 -430 16 -44 34 -96 38 -115 5 -19 32 -100 61 -180 28 -80 55 -159 60 -177 13 -44 55 -131 122 -256 47 -86 63 -107 81 -107 28 0 46 18 46 46 0 20 -97 317 -155 474 -33 89 -199 611 -280 880 -8 25 -21 72 -29 105 -9 33 -27 103 -41 155 -63 231 -126 483 -123 491 2 5 62 -37 133 -92 216 -168 452 -337 700 -503 245 -162 391 -256 402 -256 3 0 17 -8 31 -19 25 -17 195 -108 322 -172 175 -88 298 -143 405 -184 33 -12 86 -34 117 -48 32 -15 70 -29 85 -33 16 -4 33 -10 38 -14 6 -4 19 -10 30 -13 11 -3 45 -15 75 -27 30 -12 111 -39 180 -62 69 -22 148 -49 175 -59 60 -23 191 -60 335 -95 58 -14 128 -31 155 -39 28 -8 64 -16 80 -19 17 -3 48 -10 70 -15 22 -5 51 -12 65 -15 14 -3 58 -12 98 -21 41 -9 79 -14 85 -12 7 2 20 0 29 -5 20 -10 68 -1 68 13 0 5 -8 9 -17 9 -10 0 -38 7 -63 15 -42 13 -262 70 -390 100 -65 16 -224 63 -368 111 -57 19 -112 34 -121 34 -9 0 -22 5 -29 12 -7 7 -12 8 -12 4 0 -5 -6 -4 -12 1 -7 5 -40 18 -73 28 -33 10 -79 26 -102 37 -24 10 -50 18 -58 18 -9 0 -27 7 -40 16 -13 9 -28 13 -33 10 -6 -3 -15 1 -22 8 -6 8 -26 18 -43 21 -18 4 -56 18 -85 31 -29 13 -57 24 -63 24 -6 0 -23 6 -37 14 -37 19 -148 66 -157 66 -7 0 -107 46 -228 106 -27 13 -55 24 -63 24 -8 0 -14 5 -14 11 0 6 -7 9 -15 5 -8 -3 -15 -1 -15 5 0 5 -12 14 -27 20 -40 15 -97 42 -103 48 -5 6 -37 25 -67 40 -92 44 -133 67 -133 72 0 4 -13 12 -29 19 -16 6 -37 20 -47 31 -9 10 -25 19 -34 19 -10 0 -23 7 -31 16 -7 8 -29 24 -48 34 -20 10 -45 26 -56 35 -38 31 -204 135 -214 135 -6 0 -11 4 -11 9 0 5 -21 23 -47 40 -71 45 -297 210 -482 351 -90 69 -187 142 -215 163 -88 65 -114 96 -125 146 -5 25 -21 96 -35 156 -67 293 -163 822 -181 995 -6 57 -14 129 -20 167 -2 12 -7 60 -10 105 -4 46 -9 99 -11 118 -11 100 -24 530 -19 625 20 343 50 573 85 650 17 38 34 80 64 163 18 50 46 140 91 297 44 153 94 306 105 320 4 6 11 35 15 66 9 73 -4 99 -48 99 -49 0 -66 -18 -78 -85 -6 -33 -15 -71 -21 -85 -6 -14 -14 -34 -18 -45 -4 -11 -14 -38 -23 -60 -19 -51 -43 -139 -51 -185 -3 -19 -21 -82 -40 -140 -65 -200 -116 -480 -141 -764 -17 -204 -20 -645 -5 -839 12 -158 46 -471 60 -552 6 -33 19 -109 30 -170 10 -60 28 -159 40 -220 11 -60 32 -171 45 -245 14 -74 36 -178 49 -230 13 -52 22 -97 20 -99 -2 -3 -15 6 -29 19 -23 22 -44 69 -51 115 -2 11 -13 54 -25 95 -21 75 -34 125 -64 255 -8 39 -22 93 -30 120 -18 64 -52 208 -61 260 -4 22 -13 52 -20 67 -8 15 -14 40 -14 55 -1 15 -17 84 -36 153 -19 69 -48 175 -64 235 -30 112 -83 271 -94 282 -3 4 -6 14 -6 23 0 9 -27 64 -60 121 -33 57 -60 108 -60 114 0 14 -119 135 -155 157 -36 21 -73 23 -99 3 -16 -12 -17 -21 -10 -62 11 -70 10 -141 -4 -155 -16 -16 -45 13 -86 85 -57 101 -105 165 -126 172 -23 7 -80 -11 -80 -26 0 -23 -19 -5 -26 23 -6 32 -13 51 -49 133 -9 22 -28 78 -41 125 -14 47 -29 94 -34 105 -30 62 -155 460 -201 635 -70 270 -120 444 -130 455 -5 5 -9 18 -9 29 0 11 -18 77 -40 147 -39 123 -62 211 -80 309 -4 25 -15 63 -24 85 -9 22 -25 74 -35 115 -39 148 -72 210 -111 209 -14 0 -35 -4 -48 -9z m204 -635 c14 -49 36 -129 48 -176 13 -48 27 -92 31 -99 4 -6 13 -35 20 -63 16 -62 155 -549 180 -627 51 -160 128 -386 160 -470 20 -52 40 -108 45 -125 5 -16 29 -91 55 -165 43 -123 47 -141 42 -202 -6 -73 1 -87 48 -92 41 -5 55 26 55 122 0 46 4 81 9 78 5 -3 28 -38 51 -77 59 -99 104 -147 152 -159 36 -10 43 -9 74 15 19 14 34 29 34 33 3 59 13 158 16 161 3 3 32 -24 67 -60 65 -68 143 -204 192 -332 24 -65 86 -275 111 -377 17 -70 61 -240 78 -305 20 -74 65 -259 85 -350 19 -86 96 -380 107 -408 3 -9 2 -17 -4 -17 -10 0 -209 169 -442 374 -154 136 -441 403 -658 613 l-163 158 -15 75 c-8 41 -18 82 -21 90 -4 8 -12 47 -18 85 -12 69 -55 288 -75 375 -10 47 -38 198 -47 261 l-5 36 46 -7 c26 -4 49 -4 51 0 5 7 -61 30 -87 30 -16 0 -32 70 -59 260 -7 47 -16 90 -21 97 -6 7 -8 16 -5 20 4 7 -9 112 -34 258 -5 33 -11 76 -13 95 -7 69 -36 326 -46 400 -31 246 -62 472 -70 519 -18 96 -11 86 26 -44z m1854 -4045 c27 -115 77 -311 101 -390 10 -36 19 -75 19 -87 0 -12 4 -24 9 -27 4 -3 11 -20 15 -38 10 -53 66 -254 103 -372 19 -60 32 -110 30 -113 -5 -4 -74 211 -127 392 -18 61 -36 119 -41 130 -4 11 -22 70 -40 130 -17 61 -35 118 -40 127 -5 10 -9 26 -9 35 0 10 -11 53 -25 95 -13 42 -26 87 -29 100 -8 43 -25 115 -32 134 -6 16 -2 14 20 -6 20 -19 32 -48 46 -110z"/>
 <path d="M4693 3502 c-29 -22 -39 -71 -20 -96 19 -26 76 -44 113 -34 69 18 107 94 66 131 -26 24 -129 23 -159 -1z"/>
 </g>

</svg>